<?xml version="1.0" encoding="utf-8"?>
<!-- Generator: Adobe Illustrator 19.0.1, SVG Export Plug-In . SVG Version: 6.00 Build 0)  -->
<svg version="1.1" id="Layer_1" xmlns="http://www.w3.org/2000/svg" xmlns:xlink="http://www.w3.org/1999/xlink" x="0px" y="0px"
	 viewBox="91 -165.5 437 106.5" style="enable-background:new 91 -165.5 437 106.5;" xml:space="preserve">
<style type="text/css">
	.st0{fill:#231F20;}
	.st1{fill:none;}
	.st2{font-family:'SourceSansPro-BlackIt';}
	.st3{font-size:108px;}
	.st4{font-family:'SourceSansPro-SemiboldIt';}
</style>
<g>
	<path id="path8248" class="st0" d="M172.2-141.8c4.7,0,8.5-3.9,8.5-8.6c0-4.8-3.8-8.6-8.5-8.6c-4.7,0-8.5,3.9-8.5,8.6
		C163.7-145.7,167.5-141.8,172.2-141.8"/>
	<path id="path8256" class="st0" d="M142.9-135.4l-13.2,15.5c-0.8,1-2,1.6-3.3,1.6c-2.4,0-4.3-1.9-4.3-4.3c0-1.3,0.6-2.5,1.4-3.3
		l14.3-16.7c0.8-1,2-1.6,3.3-1.6l20.7,0c1.5,0,2.9,0.6,3.9,1.6l13.2,13.3l10.9-11c0.8-0.7,1.8-1.1,2.8-1.1c2.4,0,4.4,2,4.4,4.5
		c0,1.1-0.4,2.1-1,2.8l-13.2,13.4c-4,4-7.2,0.6-7.2,0.6l-8.1-8.2l-12.6,14.8l11.6,11.7c0,0,2.4,2.3,1,6.9l-6.5,29.3
		c-0.5,2.5-2.7,4.5-5.4,4.5c-3,0-5.5-2.5-5.5-5.6c0-0.5,0.1-1,0.2-1.4l5.3-24L142.5-105l-11.3,12.8c0,0-1.8,2.3-6.7,2.1l-22.9,0
		c-2.6,0-4.9-1.7-5.5-4.4c-0.7-3,1.1-5.9,4.1-6.6c0.5-0.1,0.9-0.1,1.4-0.1l19.7,0.1l29.2-34.3L142.9-135.4L142.9-135.4z"/>
</g>
<rect x="197" y="-148.5" class="st1" width="478" height="179"/>
<text transform="matrix(1 0 0 1 197 -72.2529)"><tspan x="0" y="0" class="st2 st3">Fit</tspan><tspan x="147.5" y="0" class="st4 st3">Log</tspan></text>
</svg>
